<?xml version="1.0" standalone="no"?>
<!DOCTYPE svg PUBLIC "-//W3C//DTD SVG 20010904//EN"
 "http://www.w3.org/TR/2001/REC-SVG-20010904/DTD/svg10.dtd">
<svg version="1.0" xmlns="http://www.w3.org/2000/svg"
 width="281.000000pt" height="281.000000pt" viewBox="0 0 281.000000 281.000000"
 preserveAspectRatio="xMidYMid meet">

<g transform="translate(0.000000,281.000000) scale(0.100000,-0.100000)"
fill="#000000" stroke="none">
<path d="M0 1405 l0 -1405 1405 0 1405 0 0 1405 0 1405 -1405 0 -1405 0 0
-1405z m820 485 c-59 -11 -124 -35 -175 -64 -55 -33 -138 -122 -168 -183 -18
-35 -39 -58 -69 -76 -24 -14 -45 -23 -47 -21 -2 2 13 38 33 80 81 162 257 274
431 272 l40 0 -45 -8z m-65 -235 c-133 -36 -296 -113 -322 -151 -9 -15 -13
-43 -11 -90 3 -67 2 -69 -32 -101 -34 -31 -35 -31 -42 -10 -3 12 -6 56 -7 99
l-1 76 63 48 c101 76 272 143 367 143 33 0 32 -1 -15 -14z m-170 -292 c38
-131 139 -274 242 -342 25 -17 42 -31 37 -31 -21 0 -131 73 -176 117 l-47 46
-47 -28 -48 -28 40 -35 c120 -104 305 -140 457 -88 37 12 67 21 67 19 0 -8
-107 -55 -157 -68 -150 -39 -324 2 -446 107 -56 48 -56 50 45 115 l67 43 -29
63 c-17 34 -30 70 -30 80 0 23 -4 22 -67 -14 -60 -35 -61 -38 -16 -119 l24
-45 -28 -22 c-15 -13 -32 -21 -37 -20 -6 2 -25 32 -43 67 l-32 64 47 42 c26
23 68 55 94 71 l48 28 1 85 2 85 7 -67 c5 -37 16 -93 25 -125z m299 -112 c-33
-9 -86 -27 -117 -40 -53 -22 -77 -22 -77 0 0 18 149 57 220 57 30 1 26 -2 -26
-17z"/>
</g>
</svg>
